<mxfile host="app.diagrams.net" modified="2023-05-13T14:29:55.570Z" agent="Mozilla/5.0 (Windows NT 10.0; Win64; x64) AppleWebKit/537.36 (KHTML, like Gecko) Chrome/113.0.0.0 Safari/537.36" etag="cdSOMdJRXTfTYr9xakPc" version="21.1.2" type="github">
  <diagram id="R2lEEEUBdFMjLlhIrx00" name="Page-1">
    <mxGraphModel dx="2284" dy="764" grid="1" gridSize="10" guides="1" tooltips="1" connect="1" arrows="1" fold="1" page="1" pageScale="1" pageWidth="850" pageHeight="1100" math="0" shadow="0" extFonts="Permanent Marker^https://fonts.googleapis.com/css?family=Permanent+Marker">
      <root>
        <mxCell id="0" />
        <mxCell id="1" parent="0" />
        <mxCell id="0C7BvCh4BsSfob4eViEc-54" style="edgeStyle=orthogonalEdgeStyle;rounded=0;orthogonalLoop=1;jettySize=auto;html=1;exitX=1;exitY=0.75;exitDx=0;exitDy=0;entryX=0.75;entryY=0;entryDx=0;entryDy=0;" edge="1" parent="1" source="0C7BvCh4BsSfob4eViEc-14" target="0C7BvCh4BsSfob4eViEc-48">
          <mxGeometry relative="1" as="geometry" />
        </mxCell>
        <mxCell id="0C7BvCh4BsSfob4eViEc-14" value="Ouvrages" style="swimlane;childLayout=stackLayout;horizontal=1;startSize=50;horizontalStack=0;rounded=1;fontSize=14;fontStyle=0;strokeWidth=2;resizeParent=0;resizeLast=1;shadow=0;dashed=0;align=center;arcSize=4;whiteSpace=wrap;html=1;" vertex="1" parent="1">
          <mxGeometry x="110" y="450" width="160" height="120" as="geometry" />
        </mxCell>
        <mxCell id="0C7BvCh4BsSfob4eViEc-55" style="edgeStyle=orthogonalEdgeStyle;rounded=0;orthogonalLoop=1;jettySize=auto;html=1;exitX=0.5;exitY=1;exitDx=0;exitDy=0;entryX=0.175;entryY=0.017;entryDx=0;entryDy=0;entryPerimeter=0;" edge="1" parent="1" source="0C7BvCh4BsSfob4eViEc-24" target="0C7BvCh4BsSfob4eViEc-28">
          <mxGeometry relative="1" as="geometry" />
        </mxCell>
        <mxCell id="0C7BvCh4BsSfob4eViEc-24" value="Régions" style="swimlane;childLayout=stackLayout;horizontal=1;startSize=50;horizontalStack=0;rounded=1;fontSize=14;fontStyle=0;strokeWidth=2;resizeParent=0;resizeLast=1;shadow=0;dashed=0;align=center;arcSize=4;whiteSpace=wrap;html=1;" vertex="1" parent="1">
          <mxGeometry x="-270" y="430" width="160" height="120" as="geometry" />
        </mxCell>
        <mxCell id="0C7BvCh4BsSfob4eViEc-40" style="edgeStyle=orthogonalEdgeStyle;rounded=0;orthogonalLoop=1;jettySize=auto;html=1;exitX=1;exitY=0.5;exitDx=0;exitDy=0;entryX=0.333;entryY=0;entryDx=0;entryDy=0;entryPerimeter=0;strokeColor=default;endArrow=none;endFill=0;" edge="1" parent="1" source="0C7BvCh4BsSfob4eViEc-25" target="0C7BvCh4BsSfob4eViEc-35">
          <mxGeometry relative="1" as="geometry" />
        </mxCell>
        <mxCell id="0C7BvCh4BsSfob4eViEc-41" value="1.N" style="edgeLabel;html=1;align=center;verticalAlign=middle;resizable=0;points=[];" vertex="1" connectable="0" parent="0C7BvCh4BsSfob4eViEc-40">
          <mxGeometry x="-0.1176" relative="1" as="geometry">
            <mxPoint as="offset" />
          </mxGeometry>
        </mxCell>
        <mxCell id="0C7BvCh4BsSfob4eViEc-45" style="edgeStyle=orthogonalEdgeStyle;rounded=0;orthogonalLoop=1;jettySize=auto;html=1;exitX=0.5;exitY=1;exitDx=0;exitDy=0;strokeColor=default;endArrow=none;endFill=0;" edge="1" parent="1" source="0C7BvCh4BsSfob4eViEc-25" target="0C7BvCh4BsSfob4eViEc-42">
          <mxGeometry relative="1" as="geometry" />
        </mxCell>
        <mxCell id="0C7BvCh4BsSfob4eViEc-46" value="1.N" style="edgeLabel;html=1;align=center;verticalAlign=middle;resizable=0;points=[];" vertex="1" connectable="0" parent="0C7BvCh4BsSfob4eViEc-45">
          <mxGeometry x="0.5378" y="-1" relative="1" as="geometry">
            <mxPoint as="offset" />
          </mxGeometry>
        </mxCell>
        <mxCell id="0C7BvCh4BsSfob4eViEc-25" value="Effluents" style="swimlane;childLayout=stackLayout;horizontal=1;startSize=50;horizontalStack=0;rounded=1;fontSize=14;fontStyle=0;strokeWidth=2;resizeParent=0;resizeLast=1;shadow=0;dashed=0;align=center;arcSize=4;whiteSpace=wrap;html=1;" vertex="1" parent="1">
          <mxGeometry x="410" y="480" width="160" height="120" as="geometry" />
        </mxCell>
        <mxCell id="0C7BvCh4BsSfob4eViEc-51" style="edgeStyle=orthogonalEdgeStyle;rounded=0;orthogonalLoop=1;jettySize=auto;html=1;exitX=1;exitY=0.5;exitDx=0;exitDy=0;entryX=0.453;entryY=0.013;entryDx=0;entryDy=0;entryPerimeter=0;" edge="1" parent="1" source="0C7BvCh4BsSfob4eViEc-26" target="0C7BvCh4BsSfob4eViEc-48">
          <mxGeometry relative="1" as="geometry" />
        </mxCell>
        <mxCell id="0C7BvCh4BsSfob4eViEc-26" value="Status" style="swimlane;childLayout=stackLayout;horizontal=1;startSize=50;horizontalStack=0;rounded=1;fontSize=14;fontStyle=0;strokeWidth=2;resizeParent=0;resizeLast=1;shadow=0;dashed=0;align=center;arcSize=4;whiteSpace=wrap;html=1;" vertex="1" parent="1">
          <mxGeometry x="50" y="680" width="160" height="120" as="geometry" />
        </mxCell>
        <mxCell id="0C7BvCh4BsSfob4eViEc-50" style="edgeStyle=orthogonalEdgeStyle;rounded=0;orthogonalLoop=1;jettySize=auto;html=1;exitX=0.5;exitY=0;exitDx=0;exitDy=0;entryX=0.5;entryY=1;entryDx=0;entryDy=0;" edge="1" parent="1" source="0C7BvCh4BsSfob4eViEc-27" target="0C7BvCh4BsSfob4eViEc-48">
          <mxGeometry relative="1" as="geometry" />
        </mxCell>
        <mxCell id="0C7BvCh4BsSfob4eViEc-27" value="Dates" style="swimlane;childLayout=stackLayout;horizontal=1;startSize=50;horizontalStack=0;rounded=1;fontSize=14;fontStyle=0;strokeWidth=2;resizeParent=0;resizeLast=1;shadow=0;dashed=0;align=center;arcSize=4;whiteSpace=wrap;html=1;" vertex="1" parent="1">
          <mxGeometry x="190" y="1000" width="160" height="120" as="geometry" />
        </mxCell>
        <mxCell id="0C7BvCh4BsSfob4eViEc-52" style="edgeStyle=orthogonalEdgeStyle;rounded=0;orthogonalLoop=1;jettySize=auto;html=1;exitX=1;exitY=0.5;exitDx=0;exitDy=0;" edge="1" parent="1" source="0C7BvCh4BsSfob4eViEc-28" target="0C7BvCh4BsSfob4eViEc-48">
          <mxGeometry relative="1" as="geometry" />
        </mxCell>
        <mxCell id="0C7BvCh4BsSfob4eViEc-28" value="Sites" style="swimlane;childLayout=stackLayout;horizontal=1;startSize=50;horizontalStack=0;rounded=1;fontSize=14;fontStyle=0;strokeWidth=2;resizeParent=0;resizeLast=1;shadow=0;dashed=0;align=center;arcSize=4;whiteSpace=wrap;html=1;" vertex="1" parent="1">
          <mxGeometry x="-190" y="780" width="160" height="120" as="geometry" />
        </mxCell>
        <mxCell id="0C7BvCh4BsSfob4eViEc-36" style="edgeStyle=orthogonalEdgeStyle;rounded=0;orthogonalLoop=1;jettySize=auto;html=1;strokeColor=default;endArrow=none;endFill=0;" edge="1" parent="1" source="0C7BvCh4BsSfob4eViEc-30" target="0C7BvCh4BsSfob4eViEc-35">
          <mxGeometry relative="1" as="geometry" />
        </mxCell>
        <mxCell id="0C7BvCh4BsSfob4eViEc-37" value="1.N" style="edgeLabel;html=1;align=center;verticalAlign=middle;resizable=0;points=[];" vertex="1" connectable="0" parent="0C7BvCh4BsSfob4eViEc-36">
          <mxGeometry x="-0.3659" y="-1" relative="1" as="geometry">
            <mxPoint as="offset" />
          </mxGeometry>
        </mxCell>
        <mxCell id="0C7BvCh4BsSfob4eViEc-43" style="edgeStyle=orthogonalEdgeStyle;rounded=0;orthogonalLoop=1;jettySize=auto;html=1;exitX=1;exitY=0.5;exitDx=0;exitDy=0;entryX=0;entryY=0.5;entryDx=0;entryDy=0;strokeColor=default;endArrow=none;endFill=0;" edge="1" parent="1" source="0C7BvCh4BsSfob4eViEc-30" target="0C7BvCh4BsSfob4eViEc-42">
          <mxGeometry relative="1" as="geometry" />
        </mxCell>
        <mxCell id="0C7BvCh4BsSfob4eViEc-53" style="edgeStyle=orthogonalEdgeStyle;rounded=0;orthogonalLoop=1;jettySize=auto;html=1;exitX=0;exitY=0.5;exitDx=0;exitDy=0;entryX=1;entryY=0.75;entryDx=0;entryDy=0;" edge="1" parent="1" source="0C7BvCh4BsSfob4eViEc-30" target="0C7BvCh4BsSfob4eViEc-48">
          <mxGeometry relative="1" as="geometry" />
        </mxCell>
        <mxCell id="0C7BvCh4BsSfob4eViEc-30" value="Paramètres" style="swimlane;childLayout=stackLayout;horizontal=1;startSize=50;horizontalStack=0;rounded=1;fontSize=14;fontStyle=0;strokeWidth=2;resizeParent=0;resizeLast=1;shadow=0;dashed=0;align=center;arcSize=4;whiteSpace=wrap;html=1;" vertex="1" parent="1">
          <mxGeometry x="580" y="810" width="160" height="120" as="geometry" />
        </mxCell>
        <mxCell id="0C7BvCh4BsSfob4eViEc-38" style="edgeStyle=orthogonalEdgeStyle;rounded=0;orthogonalLoop=1;jettySize=auto;html=1;exitX=0;exitY=0.5;exitDx=0;exitDy=0;entryX=0.5;entryY=0;entryDx=0;entryDy=0;strokeColor=default;endArrow=none;endFill=0;" edge="1" parent="1" source="0C7BvCh4BsSfob4eViEc-31" target="0C7BvCh4BsSfob4eViEc-35">
          <mxGeometry relative="1" as="geometry" />
        </mxCell>
        <mxCell id="0C7BvCh4BsSfob4eViEc-39" value="1.N" style="edgeLabel;html=1;align=center;verticalAlign=middle;resizable=0;points=[];" vertex="1" connectable="0" parent="0C7BvCh4BsSfob4eViEc-38">
          <mxGeometry x="-0.5442" y="1" relative="1" as="geometry">
            <mxPoint as="offset" />
          </mxGeometry>
        </mxCell>
        <mxCell id="0C7BvCh4BsSfob4eViEc-31" value="Standards ISO" style="swimlane;childLayout=stackLayout;horizontal=1;startSize=50;horizontalStack=0;rounded=1;fontSize=14;fontStyle=0;strokeWidth=2;resizeParent=0;resizeLast=1;shadow=0;dashed=0;align=center;arcSize=4;whiteSpace=wrap;html=1;" vertex="1" parent="1">
          <mxGeometry x="860" y="460" width="160" height="120" as="geometry" />
        </mxCell>
        <mxCell id="0C7BvCh4BsSfob4eViEc-44" style="edgeStyle=orthogonalEdgeStyle;rounded=0;orthogonalLoop=1;jettySize=auto;html=1;exitX=0.5;exitY=0;exitDx=0;exitDy=0;entryX=0.5;entryY=1;entryDx=0;entryDy=0;strokeColor=default;endArrow=none;endFill=0;" edge="1" parent="1" source="0C7BvCh4BsSfob4eViEc-34" target="0C7BvCh4BsSfob4eViEc-42">
          <mxGeometry relative="1" as="geometry" />
        </mxCell>
        <mxCell id="0C7BvCh4BsSfob4eViEc-47" value="1N" style="edgeLabel;html=1;align=center;verticalAlign=middle;resizable=0;points=[];" vertex="1" connectable="0" parent="0C7BvCh4BsSfob4eViEc-44">
          <mxGeometry x="-0.2118" y="-2" relative="1" as="geometry">
            <mxPoint as="offset" />
          </mxGeometry>
        </mxCell>
        <mxCell id="0C7BvCh4BsSfob4eViEc-34" value="Standards Contractuelle" style="swimlane;childLayout=stackLayout;horizontal=1;startSize=50;horizontalStack=0;rounded=1;fontSize=14;fontStyle=0;strokeWidth=2;resizeParent=0;resizeLast=1;shadow=0;dashed=0;align=center;arcSize=4;whiteSpace=wrap;html=1;" vertex="1" parent="1">
          <mxGeometry x="890" y="910" width="170" height="120" as="geometry" />
        </mxCell>
        <mxCell id="0C7BvCh4BsSfob4eViEc-35" value="MIX&lt;br&gt;MIN" style="shape=associativeEntity;whiteSpace=wrap;html=1;align=center;" vertex="1" parent="1">
          <mxGeometry x="640" y="590" width="150" height="70" as="geometry" />
        </mxCell>
        <mxCell id="0C7BvCh4BsSfob4eViEc-42" value="MIX&lt;br style=&quot;border-color: var(--border-color);&quot;&gt;MIN" style="shape=associativeEntity;whiteSpace=wrap;html=1;align=center;" vertex="1" parent="1">
          <mxGeometry x="960" y="730" width="150" height="70" as="geometry" />
        </mxCell>
        <mxCell id="0C7BvCh4BsSfob4eViEc-48" value="Valeur" style="shape=associativeEntity;whiteSpace=wrap;html=1;align=center;" vertex="1" parent="1">
          <mxGeometry x="280" y="800" width="150" height="80" as="geometry" />
        </mxCell>
      </root>
    </mxGraphModel>
  </diagram>
</mxfile>
